HIERARCHY
ROOT hip
{
  OFFSET 0.00112043 5.09927 -9.65472
  CHANNELS 6 Xposition Yposition Zposition Zrotation Xrotation Yrotation
  JOINT abdomen
  {
    OFFSET 0 -1.186 -1.5018
    CHANNELS 3 Zrotation Xrotation Yrotation
    JOINT abdomen2
    {
      OFFSET 0 9.964 0.2134
      CHANNELS 3 Zrotation Xrotation Yrotation
      JOINT chest
      {
        OFFSET 0 13.134 -3.2573
        CHANNELS 3 Zrotation Xrotation Yrotation
        JOINT neck
        {
          OFFSET 0 20.686 -1.6905
          CHANNELS 3 Zrotation Xrotation Yrotation
          JOINT head
          {
            OFFSET 0 7.238 -0.1237
            CHANNELS 3 Zrotation Xrotation Yrotation
            End Site
            {
              OFFSET 0 0 0
            }
          }
        }
        JOINT lCollar
        {
          OFFSET 1.7069 20.075 5.0056
          CHANNELS 3 Zrotation Xrotation Yrotation
          JOINT lShldr
          {
            OFFSET 13.6458 -0.047 -4.849
            CHANNELS 3 Zrotation Xrotation Yrotation
            JOINT lForeArm
            {
              OFFSET 28.3255 -0.9759 2.2888
              CHANNELS 3 Zrotation Xrotation Yrotation
              JOINT lHand
              {
                OFFSET 22.1583 -0.53 10.8316
                CHANNELS 3 Zrotation Xrotation Yrotation
                JOINT lThumb1
                {
                  OFFSET 0.786 0.112 2.5817
                  CHANNELS 3 Zrotation Xrotation Yrotation
                  JOINT lThumb2
                  {
                    OFFSET 0.3601 -0.878 4.2331
                    CHANNELS 3 Zrotation Xrotation Yrotation
                    JOINT lThumb2_End
                    {
                      OFFSET 1.8127 -1.216 2.2227
                      CHANNELS 3 Zrotation Xrotation Yrotation
                      End Site
                      {
                        OFFSET 0.0181 -0.0122 0.0222
                      }
                    }
                  }
                }
                JOINT lCarpal1
                {
                  OFFSET 0.9571 1.114 1.7695
                  CHANNELS 3 Zrotation Xrotation Yrotation
                  JOINT lIndex1
                  {
                    OFFSET 4.1246 0.487 4.1451
                    CHANNELS 3 Zrotation Xrotation Yrotation
                    JOINT lIndex2
                    {
                      OFFSET 3.4052 -1.454 2.7682
                      CHANNELS 3 Zrotation Xrotation Yrotation
                      JOINT lIndex2_End
                      {
                        OFFSET 1.4531 -1.795 1.2713
                        CHANNELS 3 Zrotation Xrotation Yrotation
                        End Site
                        {
                          OFFSET 0.0145 -0.0179 0.0127
                        }
                      }
                    }
                  }
                  JOINT lMid1
                  {
                    OFFSET 5.6954 0.21 2.1184
                    CHANNELS 3 Zrotation Xrotation Yrotation
                    JOINT lMid2
                    {
                      OFFSET 3.9766 -1.54 2.3863
                      CHANNELS 3 Zrotation Xrotation Yrotation
                      JOINT lMid2_End
                      {
                        OFFSET 1.4042 -1.926 1.125
                        CHANNELS 3 Zrotation Xrotation Yrotation
                        End Site
                        {
                          OFFSET 0.014 -0.0193 0.0113
                        }
                      }
                    }
                  }
                }
                JOINT lCarpal2
                {
                  OFFSET 2.0956 0.66 -0.3894
                  CHANNELS 3 Zrotation Xrotation Yrotation
                  JOINT lRing1
                  {
                    OFFSET 5.0395 -0.09 2.4971
                    CHANNELS 3 Zrotation Xrotation Yrotation
                    JOINT lRing2
                    {
                      OFFSET 3.7921 -1.552 1.4806
                      CHANNELS 3 Zrotation Xrotation Yrotation
                      JOINT lRing2_End
                      {
                        OFFSET 1.4655 -1.808 0.9609
                        CHANNELS 3 Zrotation Xrotation Yrotation
                        End Site
                        {
                          OFFSET 0.0147 -0.0181 0.0096
                        }
                      }
                    }
                  }
                  JOINT lPinky1
                  {
                    OFFSET 4.9141 -1.269 0.3591
                    CHANNELS 3 Zrotation Xrotation Yrotation
                    JOINT lPinky2
                    {
                      OFFSET 3.1477 -1.685 0.8462
                      CHANNELS 3 Zrotation Xrotation Yrotation
                      JOINT lPinky2_End
                      {
                        OFFSET 0.8055 -1.585 0.7955
                        CHANNELS 3 Zrotation Xrotation Yrotation
                        End Site
                        {
                          OFFSET 0.0081 -0.0158 0.008
                        }
                      }
                    }
                  }
                }
              }
            }
          }
        }
        JOINT rCollar
        {
          OFFSET -1.7069 20.075 5.0056
          CHANNELS 3 Zrotation Xrotation Yrotation
          JOINT rShldr
          {
            OFFSET -13.6458 -0.047 -4.849
            CHANNELS 3 Zrotation Xrotation Yrotation
            JOINT rForeArm
            {
              OFFSET -28.3255 -0.9759 2.2888
              CHANNELS 3 Zrotation Xrotation Yrotation
              JOINT rHand
              {
                OFFSET -22.1583 -0.53 10.8316
                CHANNELS 3 Zrotation Xrotation Yrotation
                JOINT rThumb1
                {
                  OFFSET -0.786 0.112 2.5817
                  CHANNELS 3 Zrotation Xrotation Yrotation
                  JOINT rThumb2
                  {
                    OFFSET -0.3601 -0.878 4.2331
                    CHANNELS 3 Zrotation Xrotation Yrotation
                    JOINT rThumb2_End
                    {
                      OFFSET -1.8127 -1.216 2.2227
                      CHANNELS 3 Zrotation Xrotation Yrotation
                      End Site
                      {
                        OFFSET -0.0181 -0.0122 0.0222
                      }
                    }
                  }
                }
                JOINT rCarpal1
                {
                  OFFSET -0.9571 1.114 1.7695
                  CHANNELS 3 Zrotation Xrotation Yrotation
                  JOINT rIndex1
                  {
                    OFFSET -4.1246 0.487 4.1451
                    CHANNELS 3 Zrotation Xrotation Yrotation
                    JOINT rIndex2
                    {
                      OFFSET -3.4052 -1.454 2.7682
                      CHANNELS 3 Zrotation Xrotation Yrotation
                      JOINT rIndex2_End
                      {
                        OFFSET -1.4531 -1.795 1.2713
                        CHANNELS 3 Zrotation Xrotation Yrotation
                        End Site
                        {
                          OFFSET -0.0145 -0.018 0.0127
                        }
                      }
                    }
                  }
                  JOINT rMid1
                  {
                    OFFSET -5.6954 0.21 2.1184
                    CHANNELS 3 Zrotation Xrotation Yrotation
                    JOINT rMid2
                    {
                      OFFSET -3.9766 -1.54 2.3863
                      CHANNELS 3 Zrotation Xrotation Yrotation
                      JOINT rMid2_End
                      {
                        OFFSET -1.4042 -1.926 1.125
                        CHANNELS 3 Zrotation Xrotation Yrotation
                        End Site
                        {
                          OFFSET -0.014 -0.0193 0.0113
                        }
                      }
                    }
                  }
                }
                JOINT rCarpal2
                {
                  OFFSET -2.0956 0.66 -0.3894
                  CHANNELS 3 Zrotation Xrotation Yrotation
                  JOINT rRing1
                  {
                    OFFSET -5.0395 -0.09 2.4971
                    CHANNELS 3 Zrotation Xrotation Yrotation
                    JOINT rRing2
                    {
                      OFFSET -3.7921 -1.552 1.4806
                      CHANNELS 3 Zrotation Xrotation Yrotation
                      JOINT rRing2_End
                      {
                        OFFSET -1.4655 -1.808 0.9609
                        CHANNELS 3 Zrotation Xrotation Yrotation
                        End Site
                        {
                          OFFSET -0.0147 -0.0181 0.0096
                        }
                      }
                    }
                  }
                  JOINT rPinky1
                  {
                    OFFSET -4.9141 -1.269 0.3592
                    CHANNELS 3 Zrotation Xrotation Yrotation
                    JOINT rPinky2
                    {
                      OFFSET -3.1477 -1.685 0.8462
                      CHANNELS 3 Zrotation Xrotation Yrotation
                      JOINT rPinky2_End
                      {
                        OFFSET -0.8055 -1.585 0.7955
                        CHANNELS 3 Zrotation Xrotation Yrotation
                        End Site
                        {
                          OFFSET -0.0081 -0.0158 0.008
                        }
                      }
                    }
                  }
                }
              }
            }
          }
        }
      }
    }
  }
  JOINT lThigh
  {
    OFFSET 8.367 -8.2066 0.5982
    CHANNELS 3 Zrotation Xrotation Yrotation
    JOINT lShin
    {
      OFFSET 2.1923 -43.463 -0.4932
      CHANNELS 3 Zrotation Xrotation Yrotation
      JOINT lFoot
      {
        OFFSET 0.7333 -45.8593 -2.6451
        CHANNELS 3 Zrotation Xrotation Yrotation
        End Site
        {
          OFFSET 2.6618 -4.2699 12.3931
        }
      }
    }
  }
  JOINT rThigh
  {
    OFFSET -8.367 -8.2066 0.5982
    CHANNELS 3 Zrotation Xrotation Yrotation
    JOINT rShin
    {
      OFFSET -2.1923 -43.463 -0.4931
      CHANNELS 3 Zrotation Xrotation Yrotation
      JOINT rFoot
      {
        OFFSET -0.7333 -45.8593 -2.6451
        CHANNELS 3 Zrotation Xrotation Yrotation
        End Site
        {
          OFFSET -2.6618 -4.2699 12.3931
        }
      }
    }
  }
}
MOTION
Frames:	4
Frame Time:	0.0333333
1.07915 31.8572 7.26465 0 15.2273 -0 -0.334936 12.4189 -0.225718 -0.641885 24.8389 -0.389248 -0.641885 24.8389 -0.389248 -2.65717e-005 0.00116991 8.36618e-007 2.66607e-007 2.02098e-009 3.49967e-007 -10.3566 0.666065 -16.2897 -37.8118 -1.92216 -66.2059 -0.162766 -16.5381 6.86945 22.7956 -1.23102 10.7469 -1.19271e-015 3.18055e-015 1.59028e-015 -3.8305e-007 -8.83264e-007 1.4054e-006 -2.33984e-007 2.8108e-006 1.76653e-006 2.38542e-015 3.18055e-015 1.59028e-015 -7.95139e-016 6.36111e-015 3.97569e-015 -3.8305e-007 -8.83264e-007 1.4054e-006 -2.33984e-007 2.8108e-006 1.76653e-006 -7.95139e-016 6.36111e-015 3.97569e-015 -3.8305e-007 -8.83264e-007 1.4054e-006 -2.33984e-007 2.8108e-006 1.76653e-006 2.38542e-015 3.18055e-015 1.59028e-015 -7.95139e-016 6.36111e-015 3.97569e-015 -3.8305e-007 -8.83264e-007 1.4054e-006 -2.33984e-007 2.8108e-006 1.76653e-006 -7.95139e-016 6.36111e-015 3.97569e-015 -3.8305e-007 -8.83264e-007 1.4054e-006 -2.33984e-007 2.8108e-006 1.76653e-006 10.3788 0.560496 16.4747 28.3952 0.94487 69.9801 -4.04555 -16.3585 -12.5841 -23.409 -1.18937 -10.5686 -3.13086e-015 -9.54166e-015 1.49089e-016 4.72699e-007 2.9056e-006 -1.48271e-006 4.72699e-007 2.9056e-006 -1.48271e-006 -3.57812e-015 -3.18055e-015 7.95139e-016 -8.64713e-015 0 1.14301e-014 4.72699e-007 2.9056e-006 -1.48271e-006 4.72699e-007 2.9056e-006 -1.48271e-006 -8.64713e-015 0 1.14301e-014 4.72699e-007 2.9056e-006 -1.48271e-006 4.72699e-007 2.9056e-006 -1.48271e-006 -3.57812e-015 -3.18055e-015 7.95139e-016 -8.64713e-015 0 1.14301e-014 4.72699e-007 2.9056e-006 -1.48271e-006 4.72699e-007 2.9056e-006 -1.48271e-006 -8.64713e-015 0 1.14301e-014 4.72699e-007 2.9056e-006 -1.48271e-006 4.72699e-007 2.9056e-006 -1.48271e-006 46.6054 -57.2967 47.3743 142.416 46.0762 -143.27 -17.1574 55.2761 19.4734 -46.5754 -57.2257 -47.2025 -142.225 46.0931 143.168 17.3668 55.5632 -19.4714 
1.07952 31.9928 7.19088 0 16.199 -0 -0.331801 12.1975 -0.229765 -0.634598 24.396 -0.399379 -0.634598 24.396 -0.399379 -1.36079e-006 5.3208e-006 -6.54646e-007 3.49823e-007 -1.0719e-006 1.23027e-008 -10.1867 0.701273 -17.1261 -38.5125 -2.7491 -65.2234 -0.145076 -16.7568 7.13683 22.9356 -1.56608 10.2935 -3.57812e-015 0 -5.56597e-015 -2.78299e-015 -3.18055e-015 -5.56597e-015 1.19271e-015 0 -5.56597e-015 -4.37326e-015 0 -3.97569e-015 2.38542e-015 0 -1.59028e-015 4.77083e-015 0 -6.36111e-015 1.98785e-015 3.18055e-015 -5.56597e-015 2.38542e-015 0 -1.59028e-015 4.77083e-015 0 -6.36111e-015 1.98785e-015 3.18055e-015 -5.56597e-015 -4.37326e-015 0 -3.97569e-015 2.38542e-015 0 -1.59028e-015 4.77083e-015 0 -6.36111e-015 1.98785e-015 3.18055e-015 -5.56597e-015 2.38542e-015 0 -1.59028e-015 4.77083e-015 0 -6.36111e-015 1.98785e-015 3.18055e-015 -5.56597e-015 10.2113 0.588945 17.323 28.6417 0.981137 69.1379 -4.06696 -16.5694 -12.7934 -23.5862 -1.54764 -10.1151 -6.21202e-015 0 -1.2921e-015 -2.13694e-015 3.18055e-015 -2.73329e-015 -8.84592e-015 -3.18055e-015 5.71506e-015 -5.51627e-015 0 -2.28602e-015 -7.45443e-016 3.18055e-015 -1.63997e-015 -4.62174e-015 6.36111e-015 2.5842e-015 -9.44227e-016 0 1.83876e-015 -7.45443e-016 3.18055e-015 -1.63997e-015 -4.62174e-015 6.36111e-015 2.5842e-015 -9.44227e-016 0 1.83876e-015 -5.51627e-015 0 -2.28602e-015 -7.45443e-016 3.18055e-015 -1.63997e-015 -4.62174e-015 6.36111e-015 2.5842e-015 -9.44227e-016 0 1.83876e-015 -7.45443e-016 3.18055e-015 -1.63997e-015 -4.62174e-015 6.36111e-015 2.5842e-015 -9.44227e-016 0 1.83876e-015 46.6009 -58.4179 47.5848 142.398 46.0849 -143.208 -18.4087 55.3372 20.3015 -46.5696 -58.3418 -47.4047 -142.205 46.1017 143.104 18.6397 55.6414 -20.3092 
1.07989 32.1268 7.11614 0 17.1704 -0 -0.328654 11.9761 -0.233756 -0.627373 23.9532 -0.409347 -0.627373 23.9532 -0.409347 -5.20474e-007 -3.41715e-005 2.82467e-006 -3.40236e-008 1.56645e-009 -2.99879e-007 -10.0163 0.733956 -17.9625 -39.1998 -3.58824 -64.2495 -0.126068 -16.9754 7.40459 23.0729 -1.90223 9.84086 1.16821e-005 -4.90095e-006 -6.02188e-007 -9.40112e-008 1.41326e-006 8.81012e-007 1.98785e-015 3.18055e-015 7.95139e-016 -2.78299e-015 -3.18055e-015 2.38542e-015 1.16821e-005 -4.90095e-006 -6.02188e-007 -9.40112e-008 1.41326e-006 8.81012e-007 -3.97569e-015 -3.18055e-015 2.38542e-015 1.16821e-005 -4.90095e-006 -6.02188e-007 -9.40112e-008 1.41326e-006 8.81012e-007 -3.97569e-015 -3.18055e-015 2.38542e-015 -2.78299e-015 -3.18055e-015 2.38542e-015 1.16821e-005 -4.90095e-006 -6.02188e-007 -9.40112e-008 1.41326e-006 8.81012e-007 -3.97569e-015 -3.18055e-015 2.38542e-015 1.16821e-005 -4.90095e-006 -6.02188e-007 -9.40112e-008 1.41326e-006 8.81012e-007 -3.97569e-015 -3.18055e-015 2.38542e-015 10.0434 0.614875 18.1713 28.8885 1.01379 68.2962 -4.08988 -16.7804 -13.0029 -23.7606 -1.90725 -9.66273 -9.29639e-006 -7.37836e-006 -1.16075e-006 4.69507e-007 2.90239e-006 -1.49682e-006 -2.73329e-015 0 -1.44119e-015 3.47873e-015 -3.18055e-015 1.19271e-015 -9.29639e-006 -7.37836e-006 -1.16075e-006 4.69507e-007 2.90239e-006 -1.49682e-006 4.27387e-015 3.18055e-015 -3.97569e-015 -9.29639e-006 -7.37836e-006 -1.16075e-006 4.69507e-007 2.90239e-006 -1.49682e-006 4.27387e-015 3.18055e-015 -3.97569e-015 3.47873e-015 -3.18055e-015 1.19271e-015 -9.29639e-006 -7.37836e-006 -1.16075e-006 4.69507e-007 2.90239e-006 -1.49682e-006 4.27387e-015 3.18055e-015 -3.97569e-015 -9.29639e-006 -7.37836e-006 -1.16075e-006 4.69507e-007 2.90239e-006 -1.49682e-006 4.27387e-015 3.18055e-015 -3.97569e-015 46.6148 -59.5365 47.8075 142.376 46.0932 -143.148 -19.6642 55.3893 21.1324 -46.5764 -59.4566 -47.6143 -142.183 46.1108 143.042 19.9178 55.7105 -21.1511 
1.08027 32.2593 7.04048 0 18.1414 -0 -0.325523 11.7548 -0.237708 -0.620255 23.5106 -0.419174 -0.620255 23.5106 -0.419174 1.22409e-005 -0.000942919 7.74548e-007 -6.37704e-007 9.58761e-006 -4.84222e-008 -9.84553 0.764208 -18.7987 -39.8735 -4.43913 -63.2848 -0.106308 -17.194 7.67274 23.2076 -2.23939 9.38902 -5.14679e-006 -2.28455e-006 -4.60216e-006 7.95139e-016 -3.18055e-015 7.95139e-016 3.57812e-015 -6.36111e-015 -7.95139e-016 -3.97569e-016 6.36111e-015 7.95139e-016 -5.14679e-006 -2.28455e-006 -4.60216e-006 -3.97569e-016 0 2.38542e-015 3.18055e-015 -3.18055e-015 -7.95139e-016 -5.14679e-006 -2.28455e-006 -4.60216e-006 -3.97569e-016 0 2.38542e-015 3.18055e-015 -3.18055e-015 -7.95139e-016 -3.97569e-016 6.36111e-015 7.95139e-016 -5.14679e-006 -2.28455e-006 -4.60216e-006 -3.97569e-016 0 2.38542e-015 3.18055e-015 -3.18055e-015 -7.95139e-016 -5.14679e-006 -2.28455e-006 -4.60216e-006 -3.97569e-016 0 2.38542e-015 3.18055e-015 -3.18055e-015 -7.95139e-016 9.87514 0.638378 19.0193 29.1355 1.04278 67.4551 -4.11146 -16.9911 -13.2128 -23.9321 -2.26819 -9.21139 8.7652e-007 -1.50357e-006 -2.90082e-006 3.88366e-006 2.4947e-007 -1.96466e-006 9.19379e-016 -3.18055e-015 -2.18663e-015 -1.21756e-015 3.18055e-015 -3.97569e-016 8.7652e-007 -1.50357e-006 -2.90082e-006 3.88366e-006 2.4947e-007 -1.96466e-006 6.28657e-015 0 4.02539e-015 8.7652e-007 -1.50357e-006 -2.90082e-006 3.88366e-006 2.4947e-007 -1.96466e-006 6.28657e-015 0 4.02539e-015 -1.21756e-015 3.18055e-015 -3.97569e-016 8.7652e-007 -1.50357e-006 -2.90082e-006 3.88366e-006 2.4947e-007 -1.96466e-006 6.28657e-015 0 4.02539e-015 8.7652e-007 -1.50357e-006 -2.90082e-006 3.88366e-006 2.4947e-007 -1.96466e-006 6.28657e-015 0 4.02539e-015 46.6361 -60.655 48.0336 142.356 46.1031 -143.087 -20.9232 55.4323 21.9656 -46.5952 -60.57 -47.8309 -142.16 46.1205 142.981 21.2005 55.77 -21.9962 
